Ted 2012 TS V2 Xvid Ac3 ADTRG
 
http://www.imdb.com/title/tt1637725/

General
Complete name : Ted TS V2 Xvid Ac3 ADTRG
Video Source : RUSSIAN CAM [THANKS]
Audio Source : HIVE CM8 [THANKS]
Encoder : SP1
Format : AVI
Format/Info : Audio Video Interleave
File size : 1.53 GiB
Duration : 1h 38mn
Overall bit rate : 2 222 Kbps
Writing application : VirtualDubMod 1.5.10.2 (build 2540/release)
Writing library : VirtualDub build 32842/release

Video
ID : 0
Format : MPEG-4 Visual
Format profile : Advanced Simple@L5
Format settings, BVOP : 2
Format settings, QPel : No
Format settings, GMC : No warppoints
Format settings, Matrix : Default (MPEG)
Codec ID : XVID
Codec ID/Hint : XviD
Duration : 1h 38mn
Bit rate : 1 826 Kbps
Width : 720 pixels
Height : 384 pixels
Display aspect ratio : 1.85:1
Frame rate : 29.970 fps
Color space : YUV
Chroma subsampling : 4:2:0
Bit depth : 8 bits
Scan type : Progressive
Compression mode : Lossy
Bits/(Pixel*Frame) : 0.220
Stream size : 1.26 GiB (82%)
Writing library : XviD 1.2.1 (UTC 2008-12-04)

Audio
ID : 1
Format : AC-3
Format/Info : Audio Coding 3
Mode extension : CM (complete main)
Format settings, Endianness : Big
Codec ID : 2000
Duration : 1h 38mn
Bit rate mode : Constant
Bit rate : 384 Kbps
Channel(s) : 2 channels
Channel positions : Front: L R
Sampling rate : 44.1 KHz
Bit depth : 16 bits
Compression mode : Lossy
Delay relative to video : 29ms
Stream size : 271 MiB (17%)
Alignment : Split accross interleaves
Interleave, duration : 33 ms (1.00 video frame)
Interleave, preload duration : 500 ms

Notes :

Ok came across a real nice vid of this [thanks you know who you are]
Added nice line audio same used on others [thanks hive cm8]
couple of crackles here and there nothing too noticible all in all real nice
vid was missing few seconds on intro and mising end credits
it is what it is until r5 comes along
real nice vid in my opinion came out real nice
sample and screens included

enjoy

please comment if you like what we do


Poster:

 
http://i.imgur.com/4LlCM.jpg


Screenshots:

 
http://i.imgur.com/75Fis.jpg

 
http://i.imgur.com/nfcfu.jpg

 
http://i.imgur.com/pfzq6.jpg


ENJOY!